<svg xmlns="http://www.w3.org/2000/svg" xmlns:xlink="http://www.w3.org/1999/xlink" width="153px" height="40px" viewBox="0 0 153 40" version="1.1">
<title>Mercado-Pago</title>
<desc>Created with Sketch.</desc>
<g id="Light-Payment-badges" stroke="none" stroke-width="1" fill="none" fill-rule="evenodd">
<path style=" stroke:none;fill-rule:nonzero;fill:rgb(7.843137%,8.627451%,52.156863%);fill-opacity:1;" d="M 56.0625 18.347656 C 56.0625 8.238281 43.511719 0 28.03125 0 C 12.550781 0 0.00390625 8.238281 0.00390625 18.347656 C 0.00390625 18.609375 0 19.328125 0 19.421875 C 0 30.144531 10.96875 38.828125 28.027344 38.828125 C 45.195312 38.828125 56.0625 30.144531 56.0625 19.421875 C 56.0625 19.046875 56.0625 18.832031 56.0625 18.347656 Z M 56.0625 18.347656 "/>
<path style=" stroke:none;fill-rule:nonzero;fill:rgb(1.960784%,69.019608%,85.098039%);fill-opacity:1;" d="M 54.988281 18.335938 C 54.988281 27.867188 42.921875 35.589844 28.035156 35.589844 C 13.152344 35.589844 1.085938 27.867188 1.085938 18.335938 C 1.085938 8.808594 13.152344 1.082031 28.035156 1.082031 C 42.921875 1.082031 54.988281 8.808594 54.988281 18.335938 Z M 54.988281 18.335938 "/>
<path style=" stroke:none;fill-rule:nonzero;fill:rgb(100%,100%,100%);fill-opacity:1;" d="M 19.089844 12.894531 C 19.074219 12.921875 18.804688 13.199219 18.980469 13.421875 C 19.40625 13.96875 20.71875 14.277344 22.046875 13.980469 C 22.839844 13.804688 23.851562 12.996094 24.835938 12.214844 C 25.898438 11.371094 26.953125 10.523438 28.015625 10.183594 C 29.140625 9.828125 29.859375 9.980469 30.335938 10.125 C 30.859375 10.28125 31.472656 10.625 32.449219 11.359375 C 34.292969 12.746094 41.710938 19.222656 42.992188 20.34375 C 44.023438 19.878906 48.609375 17.902344 54.839844 16.527344 C 54.300781 13.203125 52.277344 10.160156 49.214844 7.671875 C 44.941406 9.464844 39.722656 10.402344 34.617188 7.90625 C 34.589844 7.898438 31.828125 6.589844 29.101562 6.652344 C 25.050781 6.746094 23.296875 8.5 21.441406 10.359375 Z M 19.089844 12.894531 "/>
<path style=" stroke:none;fill-rule:nonzero;fill:rgb(100%,100%,100%);fill-opacity:1;" d="M 42.691406 21.046875 C 42.601562 20.972656 33.972656 13.414062 32.015625 11.941406 C 30.882812 11.09375 30.253906 10.875 29.59375 10.792969 C 29.25 10.746094 28.773438 10.8125 28.441406 10.902344 C 27.53125 11.148438 26.34375 11.945312 25.285156 12.785156 C 24.191406 13.65625 23.160156 14.476562 22.207031 14.691406 C 20.984375 14.964844 19.492188 14.640625 18.808594 14.179688 C 18.535156 13.996094 18.339844 13.78125 18.246094 13.5625 C 17.992188 12.976562 18.457031 12.511719 18.535156 12.433594 L 20.917969 9.855469 C 21.195312 9.578125 21.472656 9.300781 21.757812 9.027344 C 20.988281 9.128906 20.277344 9.324219 19.585938 9.519531 C 18.722656 9.761719 17.894531 9.992188 17.054688 9.992188 C 16.703125 9.992188 14.824219 9.683594 14.46875 9.585938 C 12.3125 8.996094 10.421875 8.421875 7.59375 7.101562 C 4.207031 9.625 1.941406 12.777344 1.289062 16.253906 C 1.777344 16.382812 2.558594 16.613281 2.890625 16.6875 C 10.550781 18.390625 12.9375 20.148438 13.371094 20.515625 C 13.839844 19.992188 14.515625 19.664062 15.273438 19.664062 C 16.121094 19.664062 16.882812 20.089844 17.347656 20.75 C 17.789062 20.402344 18.390625 20.105469 19.175781 20.105469 C 19.53125 20.105469 19.898438 20.171875 20.269531 20.300781 C 21.136719 20.597656 21.582031 21.171875 21.8125 21.695312 C 22.105469 21.5625 22.460938 21.464844 22.878906 21.46875 C 23.292969 21.46875 23.722656 21.5625 24.15625 21.75 C 25.566406 22.355469 25.789062 23.742188 25.660156 24.789062 C 25.761719 24.777344 25.859375 24.773438 25.964844 24.773438 C 27.640625 24.777344 29 26.136719 29 27.816406 C 29 28.335938 28.867188 28.824219 28.636719 29.25 C 29.09375 29.507812 30.253906 30.085938 31.277344 29.957031 C 32.089844 29.855469 32.398438 29.578125 32.511719 29.417969 C 32.585938 29.3125 32.667969 29.1875 32.59375 29.09375 L 30.429688 26.691406 C 30.429688 26.691406 30.074219 26.355469 30.191406 26.226562 C 30.3125 26.089844 30.535156 26.28125 30.6875 26.414062 C 31.789062 27.332031 33.132812 28.722656 33.132812 28.722656 C 33.15625 28.734375 33.246094 28.910156 33.742188 29 C 34.167969 29.078125 34.925781 29.035156 35.449219 28.601562 C 35.582031 28.492188 35.714844 28.359375 35.824219 28.21875 C 35.816406 28.222656 35.808594 28.234375 35.800781 28.238281 C 36.355469 27.527344 35.742188 26.8125 35.742188 26.8125 L 33.214844 23.976562 C 33.214844 23.976562 32.855469 23.640625 32.976562 23.507812 C 33.085938 23.390625 33.320312 23.566406 33.476562 23.699219 C 34.277344 24.367188 35.40625 25.5 36.488281 26.5625 C 36.699219 26.71875 37.652344 27.304688 38.910156 26.476562 C 39.675781 25.976562 39.828125 25.359375 39.808594 24.894531 C 39.753906 24.28125 39.273438 23.839844 39.273438 23.839844 L 35.824219 20.371094 C 35.824219 20.371094 35.460938 20.058594 35.589844 19.902344 C 35.695312 19.769531 35.933594 19.960938 36.085938 20.089844 C 37.1875 21.011719 40.160156 23.738281 40.160156 23.738281 C 40.203125 23.769531 41.230469 24.5 42.5 23.691406 C 42.953125 23.402344 43.242188 22.964844 43.269531 22.457031 C 43.3125 21.574219 42.691406 21.046875 42.691406 21.046875 Z M 42.691406 21.046875 "/>
<path style=" stroke:none;fill-rule:nonzero;fill:rgb(100%,100%,100%);fill-opacity:1;" d="M 25.964844 25.445312 C 25.429688 25.441406 24.84375 25.757812 24.769531 25.710938 C 24.726562 25.683594 24.800781 25.46875 24.851562 25.34375 C 24.902344 25.222656 25.605469 23.101562 23.890625 22.367188 C 22.578125 21.800781 21.773438 22.4375 21.496094 22.722656 C 21.425781 22.796875 21.394531 22.792969 21.382812 22.695312 C 21.359375 22.316406 21.1875 21.28125 20.054688 20.933594 C 18.433594 20.4375 17.390625 21.570312 17.128906 21.980469 C 17.007812 21.054688 16.226562 20.335938 15.273438 20.335938 C 14.234375 20.335938 13.390625 21.179688 13.390625 22.21875 C 13.390625 23.257812 14.230469 24.101562 15.269531 24.101562 C 15.773438 24.101562 16.234375 23.898438 16.570312 23.574219 C 16.582031 23.585938 16.585938 23.601562 16.578125 23.636719 C 16.5 24.105469 16.355469 25.796875 18.125 26.484375 C 18.835938 26.757812 19.4375 26.554688 19.9375 26.203125 C 20.089844 26.097656 20.113281 26.140625 20.089844 26.28125 C 20.027344 26.71875 20.109375 27.648438 21.414062 28.179688 C 22.40625 28.582031 22.992188 28.167969 23.378906 27.8125 C 23.546875 27.660156 23.589844 27.683594 23.601562 27.921875 C 23.648438 29.179688 24.691406 30.179688 25.960938 30.179688 C 27.269531 30.183594 28.328125 29.125 28.328125 27.816406 C 28.328125 26.507812 27.269531 25.460938 25.964844 25.445312 Z M 25.964844 25.445312 "/>
<path style=" stroke:none;fill-rule:nonzero;fill:rgb(7.843137%,8.627451%,52.156863%);fill-opacity:1;" d="M 43.023438 20.144531 C 40.363281 17.820312 34.21875 12.476562 32.554688 11.226562 C 31.605469 10.507812 30.957031 10.132812 30.386719 9.960938 C 30.128906 9.882812 29.777344 9.796875 29.320312 9.796875 C 28.898438 9.796875 28.441406 9.871094 27.96875 10.023438 C 26.890625 10.363281 25.820312 11.214844 24.785156 12.039062 L 24.730469 12.082031 C 23.765625 12.851562 22.769531 13.644531 22.011719 13.8125 C 21.683594 13.886719 21.34375 13.925781 21.007812 13.925781 C 20.160156 13.925781 19.398438 13.679688 19.117188 13.316406 C 19.070312 13.257812 19.097656 13.160156 19.207031 13.019531 L 19.222656 13 L 21.5625 10.480469 C 23.394531 8.644531 25.125 6.914062 29.109375 6.824219 C 29.175781 6.820312 29.242188 6.820312 29.308594 6.820312 C 31.785156 6.820312 34.265625 7.933594 34.542969 8.0625 C 36.867188 9.195312 39.269531 9.773438 41.679688 9.773438 C 44.195312 9.773438 46.789062 9.152344 49.515625 7.894531 C 49.210938 7.640625 48.894531 7.390625 48.566406 7.144531 C 46.171875 8.183594 43.890625 8.710938 41.6875 8.707031 C 39.4375 8.707031 37.191406 8.167969 35.007812 7.101562 C 34.894531 7.046875 32.15625 5.753906 29.308594 5.753906 C 29.234375 5.753906 29.15625 5.753906 29.082031 5.753906 C 25.738281 5.835938 23.851562 7.023438 22.585938 8.066406 C 21.351562 8.09375 20.289062 8.390625 19.34375 8.65625 C 18.5 8.890625 17.769531 9.09375 17.058594 9.09375 C 16.765625 9.09375 16.238281 9.066406 16.191406 9.066406 C 15.371094 9.042969 11.253906 8.03125 7.976562 6.789062 C 7.640625 7.027344 7.320312 7.269531 7.003906 7.519531 C 10.429688 8.925781 14.59375 10.011719 15.910156 10.097656 C 16.277344 10.121094 16.667969 10.160156 17.054688 10.164062 C 17.925781 10.164062 18.792969 9.917969 19.636719 9.683594 C 20.132812 9.542969 20.679688 9.390625 21.253906 9.28125 C 21.101562 9.433594 20.949219 9.585938 20.792969 9.738281 L 18.417969 12.3125 C 18.230469 12.5 17.824219 13.003906 18.09375 13.628906 C 18.199219 13.878906 18.414062 14.117188 18.71875 14.320312 C 19.28125 14.703125 20.296875 14.960938 21.238281 14.960938 C 21.597656 14.960938 21.933594 14.925781 22.246094 14.855469 C 23.242188 14.632812 24.285156 13.800781 25.394531 12.917969 C 26.277344 12.21875 27.527344 11.328125 28.488281 11.066406 C 28.757812 10.992188 29.085938 10.945312 29.351562 10.945312 C 29.429688 10.949219 29.503906 10.949219 29.574219 10.960938 C 30.207031 11.039062 30.820312 11.257812 31.914062 12.078125 C 33.867188 13.542969 42.5 21.101562 42.582031 21.175781 C 42.589844 21.179688 43.140625 21.65625 43.101562 22.445312 C 43.082031 22.886719 42.835938 23.277344 42.410156 23.550781 C 42.042969 23.785156 41.664062 23.902344 41.277344 23.902344 C 40.703125 23.902344 40.304688 23.632812 40.277344 23.613281 C 40.246094 23.585938 37.289062 20.871094 36.199219 19.960938 C 36.027344 19.816406 35.859375 19.6875 35.6875 19.6875 C 35.597656 19.6875 35.515625 19.726562 35.460938 19.792969 C 35.289062 20.003906 35.484375 20.296875 35.707031 20.492188 L 39.164062 23.964844 C 39.167969 23.96875 39.59375 24.371094 39.640625 24.902344 C 39.667969 25.476562 39.394531 25.960938 38.820312 26.335938 C 38.414062 26.605469 38 26.742188 37.597656 26.742188 C 37.066406 26.742188 36.691406 26.5 36.609375 26.441406 L 36.113281 25.953125 C 35.210938 25.0625 34.273438 24.140625 33.589844 23.566406 C 33.421875 23.429688 33.242188 23.300781 33.074219 23.300781 C 32.992188 23.300781 32.914062 23.332031 32.855469 23.390625 C 32.777344 23.480469 32.722656 23.636719 32.917969 23.894531 C 33 24 33.09375 24.089844 33.09375 24.089844 L 35.613281 26.921875 C 35.636719 26.949219 36.132812 27.542969 35.671875 28.132812 L 35.582031 28.246094 C 35.507812 28.328125 35.425781 28.40625 35.347656 28.472656 C 34.917969 28.824219 34.34375 28.863281 34.117188 28.863281 C 33.996094 28.863281 33.875 28.851562 33.773438 28.832031 C 33.527344 28.789062 33.359375 28.71875 33.277344 28.625 L 33.246094 28.589844 C 33.109375 28.449219 31.839844 27.152344 30.789062 26.273438 C 30.648438 26.15625 30.476562 26.007812 30.296875 26.007812 C 30.207031 26.007812 30.128906 26.042969 30.070312 26.113281 C 29.863281 26.339844 30.171875 26.679688 30.304688 26.804688 L 32.457031 29.179688 C 32.453125 29.199219 32.425781 29.25 32.375 29.324219 C 32.296875 29.429688 32.039062 29.691406 31.257812 29.789062 C 31.164062 29.800781 31.066406 29.804688 30.972656 29.804688 C 30.167969 29.804688 29.308594 29.414062 28.867188 29.179688 C 29.066406 28.753906 29.171875 28.285156 29.171875 27.816406 C 29.171875 26.046875 27.734375 24.605469 25.964844 24.605469 C 25.929688 24.605469 25.886719 24.605469 25.851562 24.605469 C 25.910156 23.796875 25.792969 22.265625 24.222656 21.59375 C 23.773438 21.398438 23.320312 21.296875 22.882812 21.296875 C 22.539062 21.296875 22.210938 21.355469 21.898438 21.476562 C 21.574219 20.84375 21.035156 20.382812 20.328125 20.140625 C 19.941406 20.003906 19.550781 19.9375 19.175781 19.9375 C 18.523438 19.9375 17.921875 20.128906 17.386719 20.511719 C 16.871094 19.871094 16.09375 19.492188 15.273438 19.492188 C 14.558594 19.492188 13.871094 19.78125 13.359375 20.285156 C 12.691406 19.773438 10.035156 18.085938 2.929688 16.472656 C 2.582031 16.394531 1.792969 16.167969 1.308594 16.023438 C 1.230469 16.410156 1.167969 16.800781 1.128906 17.191406 C 1.128906 17.191406 2.4375 17.503906 2.695312 17.5625 C 9.957031 19.175781 12.355469 20.855469 12.761719 21.171875 C 12.625 21.503906 12.550781 21.859375 12.550781 22.21875 C 12.550781 23.71875 13.769531 24.941406 15.269531 24.941406 C 15.4375 24.941406 15.605469 24.925781 15.769531 24.898438 C 15.996094 26 16.71875 26.839844 17.820312 27.269531 C 18.144531 27.390625 18.472656 27.457031 18.792969 27.457031 C 19 27.457031 19.207031 27.429688 19.410156 27.378906 C 19.613281 27.894531 20.074219 28.542969 21.097656 28.960938 C 21.457031 29.105469 21.816406 29.179688 22.167969 29.179688 C 22.453125 29.179688 22.730469 29.128906 23 29.03125 C 23.488281 30.230469 24.660156 31.023438 25.960938 31.023438 C 26.828125 31.023438 27.65625 30.671875 28.261719 30.046875 C 28.78125 30.335938 29.871094 30.859375 30.976562 30.859375 C 31.121094 30.859375 31.253906 30.847656 31.386719 30.832031 C 32.484375 30.695312 32.996094 30.265625 33.230469 29.929688 C 33.273438 29.875 33.3125 29.8125 33.34375 29.746094 C 33.601562 29.820312 33.886719 29.882812 34.214844 29.882812 C 34.8125 29.882812 35.386719 29.679688 35.96875 29.253906 C 36.539062 28.84375 36.945312 28.25 37.003906 27.746094 C 37.003906 27.742188 37.007812 27.734375 37.007812 27.726562 C 37.199219 27.765625 37.398438 27.785156 37.59375 27.785156 C 38.210938 27.785156 38.816406 27.59375 39.398438 27.214844 C 40.515625 26.480469 40.710938 25.523438 40.691406 24.894531 C 40.886719 24.933594 41.085938 24.957031 41.285156 24.957031 C 41.863281 24.957031 42.433594 24.78125 42.976562 24.4375 C 43.667969 23.992188 44.085938 23.3125 44.148438 22.523438 C 44.191406 21.988281 44.058594 21.445312 43.777344 20.980469 C 45.648438 20.171875 49.933594 18.609375 54.976562 17.472656 C 54.945312 17.078125 54.886719 16.695312 54.820312 16.308594 C 48.71875 17.664062 44.164062 19.636719 43.023438 20.144531 Z M 25.964844 30.011719 C 24.777344 30.011719 23.816406 29.089844 23.773438 27.914062 C 23.769531 27.816406 23.757812 27.546875 23.53125 27.546875 C 23.4375 27.546875 23.359375 27.601562 23.265625 27.6875 C 23.003906 27.929688 22.671875 28.175781 22.1875 28.175781 C 21.96875 28.175781 21.730469 28.125 21.480469 28.019531 C 20.226562 27.511719 20.210938 26.652344 20.261719 26.308594 C 20.273438 26.214844 20.28125 26.117188 20.214844 26.042969 L 20.140625 25.976562 L 20.0625 25.976562 C 19.996094 25.976562 19.933594 26 19.84375 26.0625 C 19.480469 26.316406 19.132812 26.441406 18.78125 26.441406 C 18.585938 26.441406 18.386719 26.402344 18.1875 26.324219 C 16.542969 25.683594 16.671875 24.128906 16.75 23.660156 C 16.761719 23.566406 16.742188 23.492188 16.679688 23.441406 L 16.5625 23.347656 L 16.453125 23.449219 C 16.132812 23.761719 15.714844 23.929688 15.273438 23.929688 C 14.328125 23.929688 13.5625 23.160156 13.5625 22.21875 C 13.5625 21.273438 14.332031 20.503906 15.273438 20.507812 C 16.128906 20.507812 16.851562 21.148438 16.960938 22 L 17.019531 22.460938 L 17.273438 22.070312 C 17.300781 22.027344 17.992188 20.980469 19.261719 20.980469 C 19.503906 20.980469 19.753906 21.019531 20.007812 21.097656 C 21.019531 21.40625 21.191406 22.328125 21.21875 22.710938 C 21.234375 22.933594 21.394531 22.945312 21.425781 22.945312 C 21.511719 22.945312 21.578125 22.886719 21.621094 22.839844 C 21.8125 22.640625 22.230469 22.308594 22.882812 22.308594 C 23.179688 22.308594 23.496094 22.378906 23.824219 22.519531 C 25.433594 23.210938 24.707031 25.261719 24.695312 25.28125 C 24.558594 25.621094 24.550781 25.769531 24.683594 25.855469 L 24.746094 25.886719 L 24.792969 25.886719 C 24.867188 25.886719 24.957031 25.855469 25.105469 25.804688 C 25.324219 25.730469 25.65625 25.617188 25.964844 25.617188 C 27.175781 25.628906 28.164062 26.617188 28.164062 27.816406 C 28.160156 29.027344 27.175781 30.011719 25.964844 30.011719 Z M 25.964844 30.011719 "/>
<path style=" stroke:none;fill-rule:nonzero;fill:rgb(7.843137%,8.627451%,52.156863%);fill-opacity:1;" d="M 151.570312 6.65625 C 150.5625 5.386719 149.023438 4.753906 146.964844 4.753906 C 144.90625 4.753906 143.367188 5.386719 142.359375 6.65625 C 141.34375 7.925781 140.839844 9.421875 140.839844 11.152344 C 140.839844 12.914062 141.34375 14.417969 142.359375 15.667969 C 143.367188 16.917969 144.90625 17.542969 146.964844 17.542969 C 149.023438 17.542969 150.5625 16.917969 151.570312 15.667969 C 152.585938 14.417969 153.089844 12.914062 153.089844 11.152344 C 153.089844 9.421875 152.585938 7.925781 151.570312 6.65625 Z M 149.066406 13.933594 C 148.574219 14.585938 147.871094 14.914062 146.953125 14.914062 C 146.039062 14.914062 145.332031 14.585938 144.835938 13.933594 C 144.339844 13.28125 144.09375 12.355469 144.09375 11.152344 C 144.09375 9.953125 144.339844 9.027344 144.835938 8.378906 C 145.332031 7.730469 146.039062 7.40625 146.953125 7.40625 C 147.871094 7.40625 148.574219 7.730469 149.066406 8.378906 C 149.554688 9.027344 149.800781 9.953125 149.800781 11.152344 C 149.800781 12.355469 149.554688 13.28125 149.066406 13.933594 Z M 149.066406 13.933594 "/>
<path style=" stroke:none;fill-rule:nonzero;fill:rgb(7.843137%,8.627451%,52.156863%);fill-opacity:1;" d="M 125.714844 5.597656 C 124.691406 5.074219 123.515625 4.8125 122.195312 4.8125 C 120.164062 4.8125 118.730469 5.34375 117.894531 6.402344 C 117.371094 7.082031 117.074219 7.945312 117.007812 8.996094 L 120.042969 8.996094 C 120.117188 8.53125 120.265625 8.164062 120.488281 7.894531 C 120.800781 7.523438 121.335938 7.339844 122.085938 7.339844 C 122.757812 7.339844 123.265625 7.433594 123.613281 7.625 C 123.960938 7.808594 124.136719 8.152344 124.136719 8.644531 C 124.136719 9.050781 123.910156 9.347656 123.457031 9.539062 C 123.203125 9.648438 122.785156 9.742188 122.199219 9.8125 L 121.125 9.945312 C 119.902344 10.101562 118.972656 10.359375 118.34375 10.71875 C 117.195312 11.382812 116.621094 12.453125 116.621094 13.933594 C 116.621094 15.074219 116.976562 15.953125 117.691406 16.578125 C 118.40625 17.199219 119.3125 17.460938 120.40625 17.511719 C 127.269531 17.816406 127.191406 13.890625 127.253906 13.074219 L 127.253906 8.554688 C 127.253906 7.105469 126.742188 6.121094 125.714844 5.597656 Z M 124.121094 12.453125 C 124.101562 13.503906 123.796875 14.230469 123.21875 14.628906 C 122.640625 15.027344 122.007812 15.226562 121.324219 15.226562 C 120.890625 15.226562 120.523438 15.105469 120.21875 14.867188 C 119.917969 14.625 119.765625 14.238281 119.765625 13.699219 C 119.765625 13.097656 120.011719 12.652344 120.507812 12.363281 C 120.800781 12.195312 121.28125 12.050781 121.953125 11.9375 L 122.671875 11.804688 C 123.027344 11.734375 123.308594 11.664062 123.511719 11.585938 C 123.71875 11.507812 123.921875 11.410156 124.121094 11.285156 Z M 124.121094 12.453125 "/>
<path style=" stroke:none;fill-rule:nonzero;fill:rgb(7.843137%,8.627451%,52.156863%);fill-opacity:1;" d="M 110.066406 7.503906 C 110.851562 7.503906 111.425781 7.746094 111.800781 8.230469 C 112.054688 8.589844 112.214844 8.996094 112.277344 9.441406 L 115.660156 9.441406 C 115.476562 7.734375 114.878906 6.539062 113.871094 5.863281 C 112.855469 5.191406 111.5625 4.851562 109.976562 4.851562 C 108.109375 4.851562 106.644531 5.425781 105.589844 6.570312 C 104.527344 7.714844 104 9.316406 104 11.375 C 104 13.195312 104.476562 14.679688 105.4375 15.828125 C 106.394531 16.96875 107.894531 17.542969 109.925781 17.542969 C 111.960938 17.542969 113.5 16.855469 114.535156 15.484375 C 115.183594 14.632812 115.550781 13.730469 115.625 12.777344 L 112.25 12.777344 C 112.183594 13.40625 111.988281 13.921875 111.660156 14.320312 C 111.335938 14.714844 110.785156 14.914062 110.007812 14.914062 C 108.917969 14.914062 108.171875 14.414062 107.777344 13.414062 C 107.5625 12.882812 107.453125 12.175781 107.453125 11.296875 C 107.453125 10.375 107.5625 9.636719 107.777344 9.078125 C 108.1875 8.03125 108.953125 7.503906 110.066406 7.503906 Z M 110.066406 7.503906 "/>
<path style=" stroke:none;fill-rule:nonzero;fill:rgb(7.843137%,8.627451%,52.156863%);fill-opacity:1;" d="M 103.089844 4.851562 C 96.136719 4.851562 96.546875 11.015625 96.546875 11.015625 L 96.546875 17.273438 L 99.703125 17.273438 L 99.703125 11.402344 C 99.703125 10.441406 99.824219 9.726562 100.066406 9.265625 C 100.5 8.445312 101.34375 8.03125 102.605469 8.03125 C 102.703125 8.03125 102.828125 8.039062 102.980469 8.042969 C 103.132812 8.050781 103.308594 8.066406 103.511719 8.089844 L 103.511719 4.875 C 103.371094 4.867188 103.277344 4.863281 103.238281 4.859375 C 103.199219 4.855469 103.148438 4.851562 103.089844 4.851562 Z M 103.089844 4.851562 "/>
<path style=" stroke:none;fill-rule:nonzero;fill:rgb(7.843137%,8.627451%,52.156863%);fill-opacity:1;" d="M 91.5 14.003906 C 91.367188 14.191406 91.222656 14.355469 91.066406 14.480469 C 90.621094 14.847656 90.015625 14.960938 89.300781 14.960938 C 88.628906 14.960938 88.101562 14.855469 87.621094 14.554688 C 86.835938 14.070312 86.390625 13.25 86.34375 12.046875 L 95.078125 12.046875 C 95.089844 11.011719 95.054688 10.21875 94.972656 9.667969 C 94.828125 8.726562 94.507812 7.898438 94.015625 7.1875 C 93.472656 6.378906 92.78125 5.789062 91.945312 5.410156 C 91.109375 5.039062 90.171875 4.851562 89.128906 4.851562 C 87.371094 4.851562 85.941406 5.40625 84.839844 6.515625 C 83.742188 7.625 83.1875 9.214844 83.1875 11.292969 C 83.1875 13.511719 83.796875 15.113281 85.019531 16.097656 C 86.238281 17.082031 87.644531 17.574219 89.242188 17.574219 C 91.171875 17.574219 92.675781 16.992188 93.75 15.824219 C 94.328125 15.210938 94.691406 14.601562 94.84375 14.003906 Z M 87.257812 8.121094 C 87.699219 7.667969 88.324219 7.4375 89.128906 7.4375 C 89.867188 7.4375 90.488281 7.652344 90.988281 8.085938 C 91.484375 8.515625 91.765625 9.148438 91.820312 9.980469 L 86.421875 9.980469 C 86.535156 9.199219 86.816406 8.578125 87.257812 8.121094 Z M 87.257812 8.121094 "/>
<path style=" stroke:none;fill-rule:nonzero;fill:rgb(7.843137%,8.627451%,52.156863%);fill-opacity:1;" d="M 81.921875 17.273438 L 79.039062 17.273438 L 79.039062 10.007812 C 79.039062 9.34375 78.820312 7.765625 76.917969 7.765625 C 75.652344 7.765625 74.734375 8.679688 74.734375 10.007812 L 74.734375 17.273438 L 71.847656 17.273438 L 71.847656 10.007812 C 71.847656 9.34375 71.652344 7.765625 69.75 7.765625 C 68.460938 7.765625 67.566406 8.679688 67.566406 10.007812 L 67.566406 17.273438 L 64.679688 17.273438 L 64.679688 10.078125 C 64.679688 7.078125 66.667969 4.808594 69.75 4.808594 C 71.28125 4.808594 72.527344 5.453125 73.335938 6.484375 C 74.1875 5.453125 75.453125 4.808594 76.917969 4.808594 C 80.066406 4.808594 81.921875 6.984375 81.921875 10.078125 Z M 81.921875 17.273438 "/>
<path style=" stroke:none;fill-rule:nonzero;fill:rgb(7.843137%,8.627451%,52.156863%);fill-opacity:1;" d="M 139.898438 1.058594 C 139.898438 1.058594 136.722656 0.71875 136.722656 3.273438 L 136.71875 6.65625 C 136.367188 6.09375 135.910156 5.648438 135.34375 5.332031 C 134.78125 5.011719 134.136719 4.851562 133.410156 4.851562 C 131.832031 4.851562 130.574219 5.441406 129.632812 6.613281 C 128.6875 7.789062 128.21875 9.480469 128.21875 11.527344 C 128.21875 13.304688 128.699219 14.757812 129.65625 15.890625 C 130.613281 17.023438 132.488281 17.523438 134.152344 17.523438 C 139.964844 17.523438 139.898438 12.535156 139.898438 12.535156 Z M 136.113281 13.960938 C 135.65625 14.621094 134.976562 14.949219 134.09375 14.949219 C 133.203125 14.949219 132.542969 14.617188 132.105469 13.953125 C 131.671875 13.289062 131.453125 12.320312 131.453125 11.214844 C 131.453125 10.1875 131.667969 9.328125 132.097656 8.632812 C 132.523438 7.941406 133.195312 7.59375 134.113281 7.59375 C 134.714844 7.59375 135.242188 7.785156 135.699219 8.164062 C 136.4375 8.796875 136.808594 9.929688 136.808594 11.394531 C 136.808594 12.445312 136.578125 13.300781 136.113281 13.960938 Z M 136.113281 13.960938 "/>
<path style=" stroke:none;fill-rule:nonzero;fill:rgb(1.960784%,69.019608%,85.098039%);fill-opacity:1;" d="M 87.722656 37.316406 C 87.722656 37.742188 87.570312 38.109375 87.257812 38.414062 C 86.949219 38.71875 86.578125 38.871094 86.144531 38.871094 L 84.570312 38.871094 L 84.570312 27.898438 C 84.570312 25.765625 85.289062 24.429688 86.46875 23.523438 C 87.253906 22.929688 88.417969 22.359375 90.597656 22.359375 C 92.070312 22.359375 93.796875 22.929688 94.730469 24.066406 C 95.777344 25.347656 96.210938 26.773438 96.210938 28.632812 C 96.210938 30.558594 95.746094 32.113281 94.820312 33.304688 C 93.894531 34.46875 92.703125 35.046875 91.246094 35.046875 C 90.476562 35.046875 89.796875 34.90625 89.207031 34.636719 C 88.585938 34.328125 88.09375 33.855469 87.722656 33.214844 Z M 93.011719 28.769531 C 93.011719 27.578125 92.78125 26.664062 92.316406 26.023438 C 91.851562 25.382812 91.1875 25.058594 90.320312 25.058594 C 89.484375 25.058594 88.835938 25.382812 88.371094 26.023438 C 87.9375 26.601562 87.722656 27.519531 87.722656 28.769531 C 87.722656 29.933594 87.953125 30.800781 88.417969 31.382812 C 88.882812 32.023438 89.546875 32.34375 90.414062 32.34375 C 91.214844 32.34375 91.851562 32.023438 92.316406 31.382812 C 92.78125 30.742188 93.011719 29.871094 93.011719 28.769531 "/>
<path style=" stroke:none;fill-rule:nonzero;fill:rgb(1.960784%,69.019608%,85.098039%);fill-opacity:1;" d="M 117.121094 34.035156 L 117.121094 33.257812 C 116.574219 34.113281 115.835938 34.644531 114.910156 34.859375 C 113.984375 35.070312 113.066406 34.996094 112.15625 34.628906 C 111.242188 34.265625 110.460938 33.585938 109.808594 32.59375 C 109.15625 31.601562 108.828125 30.296875 108.828125 28.679688 C 108.828125 26.789062 109.261719 25.253906 110.125 24.078125 C 110.992188 22.90625 112.382812 22.371094 114.296875 22.316406 C 116.183594 22.265625 117.277344 22.695312 118.351562 23.507812 C 119.523438 24.398438 120.21875 25.765625 120.21875 27.902344 L 120.21875 34.355469 C 120.222656 36.410156 118.792969 40.21875 114.296875 39.894531 C 111.511719 39.695312 109.964844 38.550781 109.101562 35.960938 L 112.429688 35.960938 C 112.671875 36.386719 113.042969 36.714844 113.546875 36.941406 C 114.042969 37.171875 114.550781 37.230469 115.046875 37.125 C 115.546875 37.019531 116.003906 36.71875 116.417969 36.234375 C 116.824219 35.746094 117.058594 35.011719 117.121094 34.035156 M 111.925781 28.773438 C 111.925781 30.875 112.535156 32.042969 113.75 32.273438 C 114.960938 32.5 115.859375 32.21875 116.4375 31.425781 C 116.710938 31.089844 116.90625 30.5625 117.027344 29.847656 C 117.148438 29.132812 117.160156 28.421875 117.050781 27.71875 C 116.949219 27.015625 116.695312 26.390625 116.300781 25.84375 C 115.90625 25.292969 115.328125 25.019531 114.570312 25.019531 C 113.535156 25.019531 112.839844 25.402344 112.472656 26.160156 C 112.105469 26.925781 111.925781 27.792969 111.925781 28.773438 "/>
<path style=" stroke:none;fill-rule:nonzero;fill:rgb(1.960784%,69.019608%,85.098039%);fill-opacity:1;" d="M 106.128906 23.1875 C 105.101562 22.667969 103.929688 22.40625 102.609375 22.40625 C 100.574219 22.40625 99.144531 22.9375 98.308594 23.996094 C 97.785156 24.671875 97.488281 25.535156 97.421875 26.589844 L 100.457031 26.589844 C 100.53125 26.125 100.679688 25.757812 100.902344 25.484375 C 101.21875 25.117188 101.75 24.933594 102.5 24.933594 C 103.175781 24.933594 103.683594 25.027344 104.027344 25.214844 C 104.375 25.402344 104.550781 25.742188 104.550781 26.238281 C 104.550781 26.640625 104.324219 26.941406 103.871094 27.132812 C 103.621094 27.242188 103.199219 27.332031 102.613281 27.40625 L 101.539062 27.539062 C 100.316406 27.695312 99.386719 27.953125 98.761719 28.3125 C 97.609375 28.976562 97.035156 30.046875 97.035156 31.523438 C 97.035156 32.664062 97.390625 33.546875 98.109375 34.167969 C 98.820312 34.789062 99.726562 35.050781 100.820312 35.101562 C 107.683594 35.410156 107.605469 31.480469 107.667969 30.667969 L 107.667969 26.148438 C 107.667969 24.699219 107.15625 23.710938 106.128906 23.1875 M 104.535156 30.042969 C 104.515625 31.097656 104.210938 31.820312 103.632812 32.21875 C 103.054688 32.617188 102.425781 32.816406 101.738281 32.816406 C 101.304688 32.816406 100.9375 32.695312 100.632812 32.457031 C 100.332031 32.21875 100.179688 31.828125 100.179688 31.292969 C 100.179688 30.6875 100.425781 30.242188 100.921875 29.957031 C 101.21875 29.789062 101.695312 29.640625 102.367188 29.527344 L 103.085938 29.394531 C 103.441406 29.328125 103.722656 29.253906 103.925781 29.175781 C 104.132812 29.101562 104.335938 29 104.535156 28.875 Z M 104.535156 30.042969 "/>
<path style=" stroke:none;fill-rule:nonzero;fill:rgb(1.960784%,69.019608%,85.098039%);fill-opacity:1;" d="M 132.15625 24.183594 C 131.144531 22.914062 129.605469 22.28125 127.546875 22.28125 C 125.488281 22.28125 123.953125 22.914062 122.941406 24.183594 C 121.925781 25.453125 121.421875 26.949219 121.421875 28.679688 C 121.421875 30.4375 121.925781 31.941406 122.941406 33.195312 C 123.953125 34.441406 125.488281 35.066406 127.546875 35.066406 C 129.605469 35.066406 131.144531 34.441406 132.15625 33.195312 C 133.167969 31.941406 133.671875 30.4375 133.671875 28.679688 C 133.671875 26.949219 133.167969 25.453125 132.15625 24.183594 M 129.648438 31.457031 C 129.15625 32.113281 128.453125 32.4375 127.539062 32.4375 C 126.621094 32.4375 125.914062 32.113281 125.421875 31.457031 C 124.921875 30.808594 124.679688 29.878906 124.679688 28.679688 C 124.679688 27.480469 124.921875 26.554688 125.421875 25.90625 C 125.914062 25.257812 126.621094 24.933594 127.539062 24.933594 C 128.453125 24.933594 129.15625 25.257812 129.648438 25.90625 C 130.140625 26.554688 130.382812 27.476562 130.382812 28.679688 C 130.382812 29.878906 130.140625 30.808594 129.648438 31.457031 "/>
</g>
</svg>
