<?xml version="1.0" standalone="no"?>
<!DOCTYPE svg PUBLIC "-//W3C//DTD SVG 20010904//EN"
 "http://www.w3.org/TR/2001/REC-SVG-20010904/DTD/svg10.dtd">
<svg version="1.0" xmlns="http://www.w3.org/2000/svg"
 width="512.000000pt" height="302.000000pt" viewBox="0 0 512.000000 302.000000"
 preserveAspectRatio="xMidYMid meet">
<metadata>
Created by potrace 1.16, written by Peter Selinger 2001-2019
</metadata>
<g transform="translate(0.000000,302.000000) scale(0.100000,-0.100000)"
fill="#000000" stroke="none">
<path d="M635 2966 c-130 -42 -265 -159 -347 -301 -109 -187 -201 -485 -229
-741 -15 -137 -6 -433 16 -524 47 -198 156 -353 275 -389 93 -28 219 -1 330
71 87 56 229 200 322 326 l77 104 5 -34 c3 -18 8 -69 11 -113 9 -117 23 -201
46 -278 22 -74 47 -95 93 -77 43 16 47 52 41 355 -6 256 -2 368 21 565 5 37 2
49 -17 69 -21 22 -27 23 -103 17 -45 -3 -166 -9 -271 -12 -212 -7 -227 -11
-245 -71 -14 -47 -2 -85 36 -109 24 -16 37 -17 158 -5 72 7 142 15 155 18 24
6 24 6 -9 -53 -128 -226 -309 -447 -437 -532 -63 -42 -138 -54 -177 -29 -59
39 -110 180 -126 350 -28 290 67 767 196 979 83 136 210 238 296 238 106 0
227 -129 348 -371 18 -35 39 -72 48 -81 32 -37 114 -12 126 37 11 44 -119 339
-183 415 -60 71 -123 124 -181 153 -55 27 -77 32 -150 34 -50 2 -102 -3 -125
-11z"/>
<path d="M1692 1855 c-157 -44 -276 -161 -323 -316 -29 -97 -24 -221 13 -300
67 -146 210 -231 388 -231 140 -1 251 44 347 140 99 98 152 239 138 363 -16
134 -109 251 -230 288 -35 11 -83 30 -107 42 -55 28 -154 34 -226 14z m70
-282 c29 3 80 9 114 12 47 6 68 3 93 -10 65 -33 76 -124 25 -212 -68 -118
-214 -163 -330 -101 -67 36 -97 99 -82 177 9 47 39 114 65 143 14 15 17 16 39
2 17 -12 38 -14 76 -11z"/>
<path d="M2389 1862 c-15 -2 -39 -17 -55 -33 -28 -30 -28 -30 -37 -212 -9
-205 -4 -328 19 -413 48 -184 282 -263 437 -147 61 46 124 140 171 258 l45
110 1 -173 c0 -158 2 -177 20 -202 23 -32 77 -54 111 -45 36 9 79 52 90 87 5
17 9 181 9 364 l0 333 -26 30 c-33 40 -86 55 -128 37 -57 -24 -124 -124 -206
-306 -90 -200 -131 -285 -156 -317 -32 -42 -90 -61 -133 -43 -48 20 -52 52
-36 300 17 273 16 304 -16 336 -27 27 -70 41 -110 36z"/>
<path d="M4215 1202 c-76 -57 -85 -69 -85 -109 0 -72 64 -133 137 -133 50 0
105 40 127 91 37 90 -3 168 -90 176 -43 4 -54 1 -89 -25z"/>
<path d="M1315 1007 c-62 -21 -90 -38 -142 -88 -106 -102 -136 -247 -79 -384
24 -57 99 -157 157 -209 l51 -46 -126 0 c-153 0 -189 -11 -212 -66 -35 -84 6
-139 112 -155 91 -14 456 -3 499 15 63 27 93 120 60 190 -10 20 -61 76 -114
124 -143 130 -202 192 -222 237 -25 54 -24 72 11 131 38 68 101 102 155 84 44
-15 82 -60 96 -116 14 -56 43 -61 65 -9 30 73 9 168 -52 229 -61 61 -179 89
-259 63z"/>
<path d="M4755 986 c-89 -28 -162 -91 -208 -181 -28 -53 -32 -69 -32 -146 0
-79 3 -91 39 -164 28 -57 60 -99 116 -157 l77 -78 -138 0 -138 0 -36 -31 c-31
-27 -35 -37 -35 -79 0 -57 31 -95 89 -107 45 -10 418 -9 483 1 93 14 142 90
116 179 -13 45 -74 112 -200 220 -83 71 -136 135 -153 184 -34 98 84 225 179
193 44 -14 65 -39 87 -102 10 -29 24 -54 33 -56 23 -5 50 56 50 113 0 152
-170 261 -329 211z"/>
<path d="M1973 891 c-109 -40 -189 -116 -248 -233 -69 -140 -73 -287 -11 -414
42 -83 75 -115 166 -158 64 -30 68 -31 210 -30 260 1 374 50 374 159 0 41 -32
80 -80 95 -26 9 -49 7 -121 -11 -112 -28 -254 -31 -299 -7 -26 14 -81 95 -71
105 2 1 32 -7 67 -18 93 -29 221 -36 292 -15 177 51 197 276 40 444 -83 90
-210 123 -319 83z m163 -191 c58 -36 97 -128 71 -164 -19 -25 -115 -38 -229
-30 -101 7 -102 9 -64 89 52 110 143 153 222 105z"/>
<path d="M2571 877 c-14 -6 -33 -26 -43 -43 -16 -28 -19 -68 -25 -371 -6 -320
-5 -341 12 -371 25 -42 76 -66 122 -57 60 11 116 81 193 239 82 170 150 316
150 323 0 2 13 24 30 47 35 51 75 71 127 62 105 -19 121 -18 141 2 24 24 32
19 32 -19 0 -72 108 -347 193 -491 96 -162 154 -195 254 -147 92 44 166 161
237 372 49 147 106 387 106 449 0 25 -40 24 -74 -3 -40 -31 -69 -88 -156 -304
-77 -193 -143 -325 -166 -332 -6 -2 -23 25 -37 60 -42 104 -127 393 -137 466
-8 57 -14 70 -44 99 -28 25 -44 32 -77 32 -33 0 -47 -6 -73 -32 l-32 -33 -22
21 c-54 51 -207 58 -296 14 -85 -43 -142 -126 -221 -325 l-36 -90 6 171 c5
139 3 179 -9 207 -24 58 -98 84 -155 54z"/>
<path d="M4205 881 c-52 -22 -59 -44 -67 -199 -3 -81 -7 -241 -7 -355 -1 -180
1 -213 16 -238 47 -79 170 -72 202 12 15 40 18 709 3 736 -24 44 -96 65 -147
44z"/>
</g>
</svg>
